<svg width="169" height="59" viewBox="0 0 169 59" fill="none" xmlns="http://www.w3.org/2000/svg">
<rect x="109" y="19" width="1" height="30" fill="#3BAF52"/>
<rect x="111" y="20" width="1" height="28" fill="#3BAF52"/>
<path d="M2.52 43.622V17.036H14.154C16.478 17.036 18.424 17.232 19.992 17.624C21.56 17.988 22.82 18.646 23.772 19.598C24.724 20.55 25.41 21.88 25.83 23.588C26.25 25.268 26.46 27.438 26.46 30.098C26.46 32.87 26.25 35.138 25.83 36.902C25.41 38.666 24.724 40.038 23.772 41.018C22.82 41.998 21.56 42.684 19.992 43.076C18.424 43.44 16.478 43.622 14.154 43.622H2.52ZM13.188 22.706H9.24V37.952H13.188C14.812 37.952 16.086 37.77 17.01 37.406C17.962 37.042 18.634 36.3 19.026 35.18C19.446 34.06 19.656 32.366 19.656 30.098C19.656 27.942 19.446 26.346 19.026 25.31C18.634 24.246 17.962 23.546 17.01 23.21C16.086 22.874 14.812 22.706 13.188 22.706ZM29.1867 33.542C29.1867 29.79 29.9847 27.088 31.5807 25.436C33.1767 23.784 35.8787 22.958 39.6867 22.958C42.2347 22.958 44.2787 23.322 45.8187 24.05C47.3587 24.778 48.4647 25.926 49.1367 27.494C49.8367 29.034 50.1867 31.05 50.1867 33.542C50.1867 36.006 49.8367 38.008 49.1367 39.548C48.4647 41.088 47.3587 42.222 45.8187 42.95C44.2787 43.65 42.2347 44 39.6867 44C35.8787 44 33.1767 43.188 31.5807 41.564C29.9847 39.912 29.1867 37.238 29.1867 33.542ZM39.6867 38.246C41.3107 38.246 42.4027 37.896 42.9627 37.196C43.5507 36.468 43.8447 35.208 43.8447 33.416C43.8447 31.708 43.5507 30.49 42.9627 29.762C42.4027 29.006 41.3107 28.628 39.6867 28.628C38.1187 28.628 37.0267 29.006 36.4107 29.762C35.8227 30.49 35.5287 31.708 35.5287 33.416C35.5287 35.208 35.8227 36.468 36.4107 37.196C37.0267 37.896 38.1187 38.246 39.6867 38.246ZM60.4685 43.622H53.7485V23.168H60.1325L60.4685 26.906H60.5945C60.9865 25.646 61.6865 24.68 62.6945 24.008C63.7025 23.308 65.1025 22.958 66.8945 22.958C69.3305 22.958 71.1225 23.644 72.2705 25.016C73.4465 26.388 74.0345 28.768 74.0345 32.156V43.622H67.3145L67.2725 33.458C67.2725 31.89 67.0345 30.77 66.5585 30.098C66.0825 29.426 65.1865 29.09 63.8705 29.09C62.6385 29.09 61.7705 29.398 61.2665 30.014C60.7625 30.602 60.4965 31.624 60.4685 33.08V43.622ZM86.415 22.958C89.103 22.958 91.273 23.238 92.925 23.798C94.577 24.358 95.781 25.394 96.537 26.906C97.321 28.39 97.713 30.546 97.713 33.374V43.622H91.623L91.413 41.69H91.287C90.755 42.39 89.929 42.95 88.809 43.37C87.689 43.79 86.233 44 84.441 44C79.597 44 77.175 41.732 77.175 37.196C77.175 35.264 77.805 33.752 79.065 32.66C80.353 31.54 82.369 30.98 85.113 30.98H91.329C91.133 29.804 90.629 29.02 89.817 28.628C89.005 28.208 87.619 27.998 85.659 27.998C84.427 27.998 83.209 28.096 82.005 28.292C80.829 28.46 79.793 28.656 78.897 28.88L78.771 28.796L78.813 23.924C79.373 23.756 80.087 23.602 80.955 23.462C81.823 23.294 82.733 23.168 83.685 23.084C84.665 23 85.575 22.958 86.415 22.958ZM86.163 39.044C87.899 39.044 89.201 38.834 90.069 38.414C90.937 37.966 91.385 37.266 91.413 36.314V35.264H86.667C85.435 35.264 84.567 35.446 84.063 35.81C83.587 36.146 83.349 36.608 83.349 37.196C83.349 37.896 83.601 38.386 84.105 38.666C84.609 38.918 85.295 39.044 86.163 39.044ZM101.182 37.826C103.366 38.442 105.788 38.75 108.448 38.75C109.736 38.75 110.702 38.708 111.346 38.624C111.99 38.54 112.424 38.4 112.648 38.204C112.872 38.008 112.984 37.742 112.984 37.406C112.984 36.93 112.802 36.636 112.438 36.524C112.102 36.412 111.416 36.258 110.38 36.062L107.062 35.432C104.934 35.012 103.394 34.354 102.442 33.458C101.518 32.534 101.056 31.162 101.056 29.342C101.056 26.878 101.784 25.198 103.24 24.302C104.724 23.406 107.076 22.958 110.296 22.958C112.228 22.958 113.922 23.07 115.378 23.294C116.862 23.49 118.094 23.742 119.074 24.05L118.99 29.132L118.864 29.258C116.596 28.53 114.118 28.166 111.43 28.166C110.114 28.166 109.19 28.264 108.658 28.46C108.154 28.628 107.902 28.978 107.902 29.51C107.902 29.79 107.972 30.014 108.112 30.182C108.28 30.35 108.644 30.518 109.204 30.686C109.764 30.826 110.646 31.008 111.85 31.232L114.916 31.82C116.624 32.184 117.884 32.786 118.696 33.626C119.508 34.466 119.914 35.796 119.914 37.616C119.914 39.212 119.62 40.486 119.032 41.438C118.444 42.362 117.45 43.02 116.05 43.412C114.678 43.804 112.774 44 110.338 44C108.49 44 106.782 43.916 105.214 43.748C103.674 43.552 102.288 43.328 101.056 43.076V37.91L101.182 37.826ZM129.817 15.566C129.901 16.574 129.943 17.414 129.943 18.086C129.943 18.478 129.929 18.884 129.901 19.304C129.901 19.696 129.873 20.144 129.817 20.648C129.229 20.76 128.655 20.844 128.095 20.9C127.535 20.956 126.975 20.984 126.415 20.984C125.883 20.984 125.337 20.956 124.777 20.9C124.245 20.844 123.699 20.76 123.139 20.648C123.083 20.172 123.041 19.738 123.013 19.346C122.985 18.926 122.971 18.52 122.971 18.128C122.971 17.764 122.985 17.372 123.013 16.952C123.041 16.532 123.083 16.07 123.139 15.566C123.699 15.426 124.259 15.342 124.819 15.314C125.407 15.258 125.981 15.23 126.541 15.23C127.073 15.23 127.605 15.258 128.137 15.314C128.697 15.342 129.257 15.426 129.817 15.566ZM129.817 43.622H123.097V23.168H129.817V43.622Z" fill="#3BAF52"/>
<path d="M141.187 43.622H134.467V17.036H141.187V43.622ZM152.959 43.622H146.239V23.168H152.623L152.959 26.906H153.085C153.477 25.646 154.177 24.68 155.185 24.008C156.193 23.308 157.593 22.958 159.385 22.958C161.821 22.958 163.613 23.644 164.761 25.016C165.937 26.388 166.525 28.768 166.525 32.156V43.622H159.805L159.763 33.458C159.763 31.89 159.525 30.77 159.049 30.098C158.573 29.426 157.677 29.09 156.361 29.09C155.129 29.09 154.261 29.398 153.757 30.014C153.253 30.602 152.987 31.624 152.959 33.08V43.622Z" fill="#EE1010"/>
</svg>
